<svg xmlns="http://www.w3.org/2000/svg" width="43" height="58" fill="none"><path fill="#FF8000" d="M42.84 49.171c-.497-.616-4.778-1.146-7.389.687-.398.28-.333.67.115.618 1.469-.173 4.745-.566 5.325.178.583.747-.65 3.83-1.202 5.203-.17.417.192.584.568.272 2.455-2.044 3.084-6.336 2.583-6.958Z"/><path fill="#FF8000" d="M38.334 51.755c-5.115 2.172-10.678 3.218-15.741 3.218-7.495 0-14.76-2.053-20.629-5.47-.511-.302-.893.225-.467.61 5.44 4.916 12.63 7.871 20.618 7.871 5.699 0 12.312-1.792 16.88-5.157.753-.559.111-1.396-.661-1.072Z"/><path fill="#FFFBF7" d="M40.146 40.117c-1.535-2.132-3.16-3.853-3.16-7.776V19.264c0-5.529.392-10.615-3.686-14.43C30.076 1.746 24.746.661 20.655.661 12.68.661 3.778 3.634 1.897 13.5c-.193 1.053.578 1.605 1.245 1.76l8.156.873c.745-.033 1.304-.778 1.452-1.535.687-3.397 3.551-5.035 6.75-5.035 1.72 0 3.672.636 4.7 2.183 1.169 1.722 1.008 4.085 1.008 6.075v1.08c-4.855.565-11.212.918-15.772 2.921C4.196 24.076.49 28.712.49 35.52c0 8.715 5.497 13.075 12.555 13.075 5.972 0 9.235-1.406 13.833-6.1 1.522 2.209 2.023 3.288 4.81 5.6.63.333 1.426.295 1.984-.193l.026.013c1.67-1.477 4.707-4.142 6.428-5.568.681-.578.566-1.477.02-2.228ZM25.208 27.434c0 3.269.09 5.992-1.567 8.894-1.33 2.364-3.442 3.809-5.805 3.809-3.217 0-5.086-2.447-5.086-6.075 0-7.148 6.402-8.445 12.458-8.445v1.817Z"/></svg>