<svg xmlns="http://www.w3.org/2000/svg" width="22" height="7" fill="none"><path fill="#FFFBF7" d="M7.958.404A.944.944 0 0 0 7.19.03c-.392 0-.757.201-.918.631-.186-.43-.446-.63-.861-.63-.41 0-.713.2-.875.63h-.011V.217a.124.124 0 0 0-.12-.114h-.62a.125.125 0 0 0-.128.123v3.407a.124.124 0 0 0 .12.112h.663c.071 0 .128-.055.128-.123V1.816c0-.394-.02-.94.457-.94.472 0 .41.56.41.94v1.806c0 .066.053.118.12.123h.663a.125.125 0 0 0 .128-.123V1.816c0-.194-.006-.482.062-.653a.44.44 0 0 1 .397-.28c.192 0 .34.065.39.294.032.137.019.495.019.639v1.806c0 .066.053.118.12.123h.663c.07 0 .127-.055.127-.123l.001-2.15c0-.365.043-.782-.167-1.068ZM16.708.032c-.96 0-1.493.825-1.493 1.885 0 1.054.526 1.9 1.493 1.9.93 0 1.518-.825 1.518-1.864C18.23.878 17.694.032 16.708.032Zm0 3.082c-.52 0-.515-.888-.515-1.305 0-.415.032-1.082.52-1.082.21 0 .36.093.434.33.088.273.1.616.1.904.002.437-.023 1.153-.539 1.153ZM11.842 3.123c-.121-.17-.25-.305-.25-.616V1.472c0-.437.03-.84-.292-1.142-.254-.244-.677-.33-1-.33-.63 0-1.337.235-1.484 1.016-.016.083.044.127.099.14l.643.068c.06-.002.104-.061.116-.121.054-.269.28-.399.534-.399.136 0 .291.05.371.173.094.136.081.323.081.481v.084c-.385.045-.888.073-1.248.231-.417.18-.708.546-.708 1.085 0 .69.434 1.035.993 1.035.471 0 .73-.111 1.094-.483.12.175.16.26.381.443a.14.14 0 0 0 .158-.015v.001c.133-.117.374-.328.509-.44.053-.045.046-.117.003-.176ZM10.66 2.119c0 .259.007.474-.125.704-.104.187-.273.301-.458.301-.255 0-.405-.193-.405-.48 0-.566.508-.669.988-.669v.144ZM21.279.433c-.187-.294-.48-.402-.777-.402-.457 0-.72.222-.904.688h-.01V.198a.127.127 0 0 0-.12-.096h-.615a.126.126 0 0 0-.128.111v3.409c0 .065.053.119.12.124h.66c.072 0 .13-.056.13-.124V1.788c0-.23.013-.437.107-.645.074-.165.222-.273.384-.273.458 0 .414.545.414.918v1.85c.005.058.058.103.117.108h.666a.13.13 0 0 0 .13-.107V1.494c0-.33 0-.788-.174-1.061ZM14.783 2.823c-.381-.215-.824-.278-1.245-.267L14.671.942c.104-.145.163-.236.163-.307V.218a.121.121 0 0 0-.126-.123h-2.182a.12.12 0 0 0-.123.123v.488c0 .072.055.122.126.122h1.14l-1.31 1.879a.59.59 0 0 0-.08.335v.494c0 .071.081.153.156.111a2.512 2.512 0 0 1 2.304-.003c.083.043.16-.04.16-.112v-.52c-.007-.07-.03-.141-.116-.189Z"/><path fill="#FF8000" d="M14.36 4.057c-.136-.168-1.305-.313-2.018.188-.11.076-.091.182.031.168.401-.047 1.296-.154 1.454.049.16.204-.177 1.045-.328 1.42-.046.114.052.16.155.075.67-.558.842-1.73.705-1.9Z"/><path fill="#FF8000" d="M13.132 4.762a11.198 11.198 0 0 1-4.298.879c-2.047 0-4.03-.56-5.633-1.494-.14-.082-.244.061-.127.167a8.337 8.337 0 0 0 5.63 2.149c1.556 0 3.361-.49 4.609-1.408.205-.153.03-.381-.18-.293Z"/><path fill="#FFFBF7" d="M3.138 3.123c-.121-.17-.25-.305-.25-.616V1.472c0-.437.031-.84-.291-1.142C2.34.086 1.92 0 1.596 0 .965 0 .26.235.11 1.016c-.015.083.046.127.099.14l.645.068c.06-.002.104-.061.115-.121.055-.269.281-.399.534-.399.137 0 .291.05.372.173.093.136.08.323.08.481v.085c-.384.045-.887.073-1.248.232A1.127 1.127 0 0 0 0 2.759c0 .69.435 1.034.994 1.034.472 0 .73-.11 1.094-.482.12.175.16.26.381.443a.14.14 0 0 0 .157-.015h.002c.132-.116.373-.327.509-.44.054-.046.045-.117.001-.176ZM1.956 2.119c0 .259.007.474-.124.704-.105.187-.272.301-.46.301-.254 0-.402-.193-.402-.48 0-.566.507-.669.986-.669v.144Z"/></svg>