<svg xmlns="http://www.w3.org/2000/svg" width="56" height="55" fill="none"><g fill="#FEFAF6" clip-path="url(#a)"><path d="M7.479 20.218c-4.734 8.07-1.725 20.314 3.51 27.738C13.604 51.668 16.25 55 19.873 55c.069 0 .137-.001.207-.004 1.703-.067 2.933-.581 4.123-1.079 1.335-.559 2.717-1.137 4.883-1.137 2.061 0 3.377.56 4.649 1.1 1.254.533 2.545 1.084 4.453 1.049 4.082-.075 6.588-3.67 8.8-6.842 2.307-3.312 3.464-6.527 3.855-7.756l.015-.049a.448.448 0 0 0-.243-.553l-.034-.014c-.719-.289-7.024-3.036-7.09-10.524-.062-6.083 4.73-9.305 5.69-9.889l.045-.027a.444.444 0 0 0 .13-.633c-3.307-4.754-8.376-5.47-10.417-5.557a9.362 9.362 0 0 0-.909-.044c-2.397 0-4.693.89-6.538 1.604-1.274.493-2.374.92-3.132.92-.853 0-1.96-.432-3.24-.931-1.713-.668-3.655-1.424-5.71-1.424l-.145.001c-4.78.07-9.295 2.755-11.785 7.007Z"/><path d="M38.94 0c-2.893.116-6.365 1.866-8.44 4.253-1.764 2.007-3.487 5.352-3.033 8.724a.455.455 0 0 0 .42.39c.195.015.394.023.593.023 2.83 0 5.883-1.538 7.967-4.014 2.195-2.614 3.304-5.97 2.969-8.974A.46.46 0 0 0 38.94 0Z"/></g><defs><clipPath id="a"><path fill="#fff" d="M0 0h56v55H0z"/></clipPath></defs></svg>