<svg xmlns="http://www.w3.org/2000/svg" width="51" height="51" fill="none"><path fill="#FF9100" d="m45.861 21.676-8.637-4.988-11.833 8.841 11.833 8.842 8.667-5.005a4.456 4.456 0 0 0 2.157-3.836c0-1.581-.806-3.015-2.187-3.854Z"/><path fill="#25D9F8" d="m28.382 25.53-10.47 13.463-13.614 10.72a4.545 4.545 0 0 1-1.346-3.23V4.502c0-1.256.509-2.393 1.346-3.23l13.613 10.794L28.382 25.53Z"/><path fill="#00C0F1" d="m28.382 25.53-2.991 3.86v-7.72l2.991 3.86Z"/><path fill="#7FE881" d="m37.24 16.674-8.856 8.856L4.3 1.272c.299-.269.598-.478.927-.688a4.43 4.43 0 0 1 4.548.09l15.617 9.179 11.848 6.821Z"/><path fill="#5BC980" d="m37.238 16.674-8.856 8.856-2.991-2.992V9.853l11.847 6.821Z"/><path fill="#FF637B" d="m37.24 34.385-11.848 6.822-15.647 9.135c-.718.418-1.496.658-2.304.658-.748 0-1.496-.21-2.214-.599a6.748 6.748 0 0 1-.927-.688L28.384 25.53l8.855 8.856Z"/><path fill="#E63950" d="m37.238 34.385-11.847 6.822V28.52l2.991-2.992 8.856 8.856Z"/></svg>