<svg xmlns="http://www.w3.org/2000/svg" width="49" height="49" fill="none"><path fill="#fff" fill-rule="evenodd" d="M24.684 48.633C38.114 48.633 49 37.746 49 24.316S38.113 0 24.684 0C11.254 0 .367 10.887.367 24.316c0 1.642.163 3.245.473 4.794l14.172.413a7.9 7.9 0 0 1 4.531-3.834l.151-6.844-.045-.121c-.03-.08-.061-.16-.087-.243-1.436-4.698 1.223-9.676 5.939-11.118 4.716-1.443 9.705 1.195 11.142 5.893 1.139 3.721-.298 7.611-3.285 9.788l-4.243 6.646c.181.371.345.755.47 1.162 1.273 4.163-1.083 8.575-5.26 9.853a7.906 7.906 0 0 1-9.174-3.616l-11.364-.33c4.243 7.11 12.014 11.874 20.897 11.874Zm4.849-27.98c2.617-.8 4.092-3.564 3.294-6.171-.797-2.608-3.566-4.073-6.183-3.272-2.619.8-4.093 3.564-3.296 6.171.798 2.608 3.565 4.074 6.185 3.272Zm.57 1.851c-3.664 1.12-7.538-.929-8.654-4.578-1.117-3.65.948-7.516 4.61-8.637 3.663-1.12 7.54.929 8.656 4.58 1.116 3.648-.95 7.515-4.613 8.635ZM19.5 29.142c2.789-.853 5.739.709 6.588 3.486.85 2.778-.722 5.722-3.51 6.574a5.28 5.28 0 0 1-5.911-2.07l3.355.098a3.85 3.85 0 0 0 4.517-3.021 3.822 3.822 0 0 0-3.02-4.497l-3.113-.09c.34-.196.703-.36 1.094-.48Z" clip-rule="evenodd"/></svg>