<svg xmlns="http://www.w3.org/2000/svg" width="63" height="37" fill="none"><path fill="url(#a)" d="M61.362 10.746c.723 0 1.31-.586 1.31-1.309V3.335a2.244 2.244 0 0 0-2.245-2.245L2.946 1.086A2.245 2.245 0 0 0 .7 3.33v6.103a1.31 1.31 0 0 0 1.308 1.309c.724 0 1.31.586 1.31 1.309l-.002 12.026c0 .723-.586 1.309-1.309 1.309-.722 0-1.308.586-1.308 1.309v6.102a2.245 2.245 0 0 0 2.243 2.245l57.483.003a2.244 2.244 0 0 0 2.244-2.243v-6.103c0-.723-.586-1.309-1.309-1.309a1.309 1.309 0 0 1-1.308-1.309V12.054c0-.722.587-1.308 1.31-1.308Z"/><path fill="url(#b)" d="M.7 27.121v5.677a2.244 2.244 0 0 0 2.243 2.244l57.482.003a2.244 2.244 0 0 0 2.244-2.243v-5.68H.7Z"/><path fill="url(#c)" d="m3.22 18.447 4.12 4.12v-4.12H3.22Z"/><path fill="url(#d)" d="m19.963 1.212 4.461 4.461h-4.461V1.212Z"/><path fill="url(#e)" d="M56.361 30.894H7.567a1.471 1.471 0 0 1-1.471-1.471V6.71c0-.814.659-1.472 1.471-1.472h48.794c.813 0 1.472.658 1.472 1.472v22.712c0 .813-.66 1.471-1.472 1.471Z"/><path fill="url(#f)" d="M26.445 9.187a3.02 3.02 0 0 0-3.485-.751c-1.218.545-2.39 1.257-3.462 1.853-.648.36-1.179.724-1.652 1.086a4.003 4.003 0 0 0-1.686-.37c-.631 0-1.228.145-1.76.405a13.4 13.4 0 0 0-1.629-1.044c-1.077-.586-2.255-1.287-3.479-1.82a3.016 3.016 0 0 0-4.13 2.041c-.318 1.3 1.127 2.585 1.113 3.878 0 0-1.447 2.921-1.074 4.383.154.605.48 1.113.908 1.495l12.14 12.14c.078.088.161.17.248.248a3.017 3.017 0 0 0 1.148.804l.011.004c.047.019.094.036.142.052l.018.006a3.3 3.3 0 0 0 .138.042l.024.006c.045.013.09.023.135.033l.03.007a3.148 3.148 0 0 0 .293.046l.04.005.123.009.046.002c.04.002.079.002.118.002h.05c.039 0 .077-.002.115-.004l.055-.004c.037-.002.074-.006.11-.01l.06-.007.107-.017.061-.01.106-.023.062-.014.106-.03c.02-.006.041-.011.061-.018.038-.012.076-.025.113-.039.018-.006.036-.011.053-.018.055-.021.11-.044.164-.068.762-.34 1.505-.746 2.217-1.149l.424-.24c.28-.159.553-.315.821-.464.377-.21.715-.42 1.025-.63l.045-.032a4 4 0 0 0 2.279.709c.873 0 1.68-.28 2.339-.752.314.21.657.42 1.04.628l.409.225c.826.457 1.704.96 2.613 1.388.151.072.304.141.456.207.055.024.11.046.165.067l.053.018.004.001.052.017.057.02c.02.006.041.01.06.017l.104.027.01.003.056.012.106.022.058.01.048.007.063.008.059.007.101.01h.017l.048.002.114.004h.056l.04-.001.073-.003.046-.002.105-.008.023-.003a2.233 2.233 0 0 0 .162-.022l.035-.006.02-.004a.276.276 0 0 0 .022-.003l.089-.019a2.75 2.75 0 0 0 .135-.033l.025-.007h.004l.023-.007a2.767 2.767 0 0 0 .43-.16l.024-.011.006-.002c.134-.064.262-.137.386-.22l.008-.005c.135-.09.262-.191.38-.302.002 0 .003-.002.004-.003.407-.382.715-.882.86-1.472.358-1.465-1.115-4.373-1.115-4.373-.026-1.292 1.406-2.591 1.076-3.887a2.982 2.982 0 0 0-.913-1.5L26.445 9.186Z"/><path fill="url(#g)" d="M.662 17.236V12.05c0-.668.542-1.21 1.211-1.21h59.62c.668 0 1.21.542 1.21 1.21v5.185c0 .669-.541 1.211-1.21 1.211H1.872c-.669 0-1.21-.542-1.21-1.211Z"/><path fill="url(#h)" d="M22.536 18.447h12.172L27.1 10.841h-4.565v7.606Z"/><path fill="url(#i)" d="M18.754 36.132h-5.185c-.669 0-1.21-.542-1.21-1.211V1.211C12.358.542 12.9 0 13.568 0h5.185c.668 0 1.21.542 1.21 1.211v33.71c0 .669-.541 1.211-1.21 1.211Z"/><path fill="url(#j)" d="m12.358 19.217 7.607 7.607V15.912h-7.607v3.305Z"/><path fill="url(#k)" d="M15.18 12.025c-.666-.55-1.399-1.11-2.409-1.66-1.077-.586-2.255-1.287-3.48-1.82a3.016 3.016 0 0 0-4.129 2.041c-.318 1.3 1.127 2.586 1.113 3.878 0 0-1.447 2.921-1.074 4.383A3.015 3.015 0 0 0 9.35 20.85c1.219-.545 2.39-1.257 3.462-1.853 1.005-.559 1.732-1.126 2.393-1.683a3.444 3.444 0 0 0-.025-5.289Z"/><path fill="url(#l)" d="M26.034 14.326c-.026-1.292 1.407-2.591 1.076-3.888a3.015 3.015 0 0 0-4.149-2.003c-1.218.545-2.39 1.257-3.462 1.853-1.005.56-1.732 1.126-2.393 1.683a3.445 3.445 0 0 0 .025 5.29c.666.55 1.398 1.11 2.409 1.66 1.077.585 2.255 1.286 3.48 1.82a3.015 3.015 0 0 0 4.129-2.042c.359-1.465-1.115-4.373-1.115-4.373Z"/><path fill="url(#m)" d="M15.204 17.315c.524-.44.878-.999 1.066-1.599-3.04.287-7.786 1.34-9.561 5.045a3.003 3.003 0 0 0 2.64.09c1.219-.545 2.39-1.258 3.462-1.853 1.005-.559 1.732-1.126 2.393-1.683Z"/><path fill="url(#n)" d="M7.533 14.466c.006 1.217.166 4.563 3.521 5.522.609-.335 1.197-.678 1.758-.99 1.005-.559 1.732-1.126 2.394-1.683a3.434 3.434 0 0 0 1.205-3.005s-1.762-.94-2.544-1.314c-4.224-2.022-6.342-.241-6.334 1.47Z"/><path fill="url(#o)" d="M17.13 17.26a3.42 3.42 0 0 1-1.081-1.588c3.042.258 7.798 1.267 9.608 4.955a3.004 3.004 0 0 1-2.639.114c-1.224-.533-2.402-1.235-3.479-1.82-1.01-.55-1.743-1.11-2.41-1.66Z"/><path fill="url(#p)" d="M24.776 14.34c.005 1.216-.123 4.564-3.47 5.555-.61-.33-1.202-.668-1.766-.974-1.01-.55-1.743-1.11-2.41-1.66a3.433 3.433 0 0 1-1.233-2.994s1.753-.957 2.531-1.338c4.206-2.062 6.34-.3 6.348 1.411Z"/><path fill="url(#q)" d="m26.622 19.803-7.523-7.523a4.037 4.037 0 0 0-1.253-.906c-.261.2-.505.399-.74.597a3.445 3.445 0 0 0 .025 5.29c.666.55 1.399 1.11 2.41 1.66 1.076.585 2.254 1.287 3.478 1.82a3.02 3.02 0 0 0 3.603-.938Z"/><path fill="url(#r)" d="M20.178 15.025a4.02 4.02 0 1 1-8.04 0 4.02 4.02 0 0 1 8.04 0Z"/><path fill="url(#s)" d="M21.326 22.536c0-.109.064-.203.19-.282a.766.766 0 0 1 .41-.117c.182 0 .293.066.336.2l1.499 5.176 1.49-5.177c.04-.133.15-.2.324-.2a.78.78 0 0 1 .41.118c.13.078.195.172.195.28a.296.296 0 0 1-.018.082l-1.797 5.886a.396.396 0 0 1-.217.242.845.845 0 0 1-.387.086c-.334 0-.536-.109-.61-.327l-1.816-5.885a.291.291 0 0 1-.009-.082Z"/><path fill="url(#t)" d="M26.842 26.805v-2.643c0-.696.184-1.208.554-1.535.369-.327.863-.49 1.48-.49.618 0 1.113.163 1.485.49.373.327.559.839.559 1.535v2.643c0 .696-.186 1.208-.559 1.535-.372.327-.867.49-1.485.49-.617 0-1.111-.163-1.48-.49-.37-.327-.554-.839-.554-1.535Zm.962 0c0 .781.358 1.172 1.072 1.172.345 0 .612-.098.8-.291.187-.194.28-.488.28-.881v-2.643c0-.394-.093-.687-.28-.881-.188-.194-.455-.29-.8-.29-.715 0-1.072.39-1.072 1.17v2.644Z"/><path fill="url(#u)" d="M32.02 26.805v-4.36c0-.102.046-.18.14-.23a.697.697 0 0 1 .34-.078c.134 0 .248.026.341.077a.248.248 0 0 1 .141.232v4.36c0 .393.097.687.29.88.195.194.467.291.818.291.745 0 1.117-.39 1.117-1.172v-4.36a.25.25 0 0 1 .142-.231.701.701 0 0 1 .34-.077c.133 0 .246.026.34.077a.25.25 0 0 1 .141.232v4.359c0 .697-.19 1.208-.567 1.535-.379.327-.883.49-1.513.49-.623 0-1.124-.163-1.503-.49-.379-.327-.568-.838-.568-1.535Z"/><path fill="url(#v)" d="M37.277 26.805v-2.643c0-.696.186-1.208.559-1.535.372-.327.858-.49 1.458-.49.617 0 1.115.152 1.494.458.378.306.567.7.567 1.185 0 .194-.036.326-.109.395-.072.07-.197.105-.372.105-.315 0-.476-.106-.482-.318-.036-.648-.39-.972-1.062-.972-.727 0-1.09.39-1.09 1.172v2.643c0 .781.37 1.172 1.108 1.172.218 0 .4-.032.545-.096a.618.618 0 0 0 .313-.277 1.58 1.58 0 0 0 .132-.318c.024-.09.043-.203.054-.336.019-.212.176-.318.473-.318.175 0 .301.035.377.105.075.07.113.201.113.395 0 .503-.19.911-.572 1.226-.381.315-.881.472-1.498.472-.6 0-1.084-.163-1.453-.49-.37-.327-.555-.839-.555-1.535Z"/><path fill="url(#w)" d="M42.254 28.458v-6.013a.25.25 0 0 1 .14-.231.703.703 0 0 1 .341-.077c.133 0 .247.025.34.077a.25.25 0 0 1 .142.231v2.507h2.261v-2.507a.25.25 0 0 1 .14-.231.703.703 0 0 1 .342-.077c.133 0 .246.025.34.077a.25.25 0 0 1 .14.231v6.013c0 .097-.046.174-.14.231a.637.637 0 0 1-.34.087.643.643 0 0 1-.336-.087c-.097-.057-.146-.134-.146-.231v-2.743h-2.261v2.743c0 .097-.048.174-.141.231a.637.637 0 0 1-.34.087.643.643 0 0 1-.337-.087c-.097-.057-.145-.134-.145-.231Z"/><path fill="url(#x)" d="M47.64 28.458v-6.004c0-.096.043-.174.128-.231a.519.519 0 0 1 .3-.086H51.3c.103 0 .182.042.236.126a.526.526 0 0 1 .082.291.539.539 0 0 1-.086.309.267.267 0 0 1-.232.127h-2.698v2.08h1.4c.096 0 .173.038.231.113a.447.447 0 0 1 .086.278.433.433 0 0 1-.082.259.272.272 0 0 1-.236.113h-1.399v2.09h2.698c.097 0 .174.041.232.126a.54.54 0 0 1 .086.309.526.526 0 0 1-.082.29.263.263 0 0 1-.236.128h-3.233a.519.519 0 0 1-.3-.087.267.267 0 0 1-.127-.231Z"/><path fill="url(#y)" d="M52.39 28.458v-6.013c0-.085.03-.157.091-.218.06-.06.137-.09.227-.09h1.726c1.393 0 2.089.617 2.089 1.852 0 .513-.115.915-.345 1.208a1.65 1.65 0 0 1-.935.583l1.27 2.394a.273.273 0 0 1 .037.137c0 .121-.062.233-.186.337a.61.61 0 0 1-.395.155c-.158 0-.284-.094-.381-.282l-1.327-2.606h-.917v2.542c0 .097-.047.175-.14.232a.638.638 0 0 1-.342.087.62.62 0 0 1-.33-.087c-.094-.057-.141-.134-.141-.231Zm.954-3.306h1.09c.75 0 1.127-.36 1.127-1.081 0-.72-.376-1.081-1.127-1.081h-1.09v2.162Z"/><defs><linearGradient id="a" x1="15.614" x2="57.557" y1="1.994" y2="43.938" gradientUnits="userSpaceOnUse"><stop stop-color="#FFD459"/><stop offset=".23" stop-color="#FFD355"/><stop offset=".436" stop-color="#FFCF4A"/><stop offset=".634" stop-color="#FFC838"/><stop offset=".825" stop-color="#FFBF1F"/><stop offset="1" stop-color="#FFB400"/></linearGradient><linearGradient id="b" x1="31.685" x2="31.685" y1="30.624" y2="36.851" gradientUnits="userSpaceOnUse"><stop stop-color="#E58200" stop-opacity="0"/><stop offset=".04" stop-color="#E27F04" stop-opacity=".039"/><stop offset=".467" stop-color="#C15D2F" stop-opacity=".467"/><stop offset=".802" stop-color="#AD4949" stop-opacity=".8"/><stop offset="1" stop-color="#A64153"/></linearGradient><linearGradient id="c" x1="6.432" x2="4.792" y1="21.08" y2="17.332" gradientUnits="userSpaceOnUse"><stop stop-color="#E58200" stop-opacity="0"/><stop offset=".04" stop-color="#E27F04" stop-opacity=".039"/><stop offset=".467" stop-color="#C15D2F" stop-opacity=".467"/><stop offset=".802" stop-color="#AD4949" stop-opacity=".8"/><stop offset="1" stop-color="#A64153"/></linearGradient><linearGradient id="d" x1="23.068" x2="13.559" y1="5.636" y2="-1.083" gradientUnits="userSpaceOnUse"><stop stop-color="#E58200" stop-opacity="0"/><stop offset=".04" stop-color="#E27F04" stop-opacity=".039"/><stop offset=".467" stop-color="#C15D2F" stop-opacity=".467"/><stop offset=".802" stop-color="#AD4949" stop-opacity=".8"/><stop offset="1" stop-color="#A64153"/></linearGradient><linearGradient id="e" x1="18.93" x2="52.945" y1="5.031" y2="39.051" gradientUnits="userSpaceOnUse"><stop stop-color="#FFFCF8"/><stop offset=".188" stop-color="#FAF8F6"/><stop offset=".404" stop-color="#ECEEF2"/><stop offset=".635" stop-color="#D5DCEA"/><stop offset=".875" stop-color="#B5C4DF"/><stop offset="1" stop-color="#A1B5D8"/></linearGradient><linearGradient id="f" x1="25.043" x2="14.393" y1="26.835" y2="2.492" gradientUnits="userSpaceOnUse"><stop stop-color="#A1B5D8" stop-opacity="0"/><stop offset=".034" stop-color="#9FB3D5" stop-opacity=".035"/><stop offset=".452" stop-color="#8898AF" stop-opacity=".451"/><stop offset=".788" stop-color="#798898" stop-opacity=".788"/><stop offset="1" stop-color="#748290"/></linearGradient><linearGradient id="g" x1="31.683" x2="31.683" y1="13.122" y2="21.363" gradientUnits="userSpaceOnUse"><stop stop-color="#FF6E3A"/><stop offset=".16" stop-color="#FF6440"/><stop offset=".427" stop-color="#FF4B52"/><stop offset=".766" stop-color="#FF216E"/><stop offset="1" stop-color="#FF0084"/></linearGradient><linearGradient id="h" x1="29.89" x2="20.972" y1="19.715" y2="10.798" gradientUnits="userSpaceOnUse"><stop stop-color="#E58200" stop-opacity="0"/><stop offset=".438" stop-color="#C4602C" stop-opacity=".439"/><stop offset=".795" stop-color="#AE4948" stop-opacity=".796"/><stop offset="1" stop-color="#A64153"/></linearGradient><linearGradient id="i" x1="16.162" x2="16.162" y1="15.97" y2="44.364" gradientUnits="userSpaceOnUse"><stop stop-color="#FF6E3A"/><stop offset=".16" stop-color="#FF6440"/><stop offset=".427" stop-color="#FF4B52"/><stop offset=".766" stop-color="#FF216E"/><stop offset="1" stop-color="#FF0084"/></linearGradient><linearGradient id="j" x1="21.031" x2="12.682" y1="22.434" y2="14.084" gradientUnits="userSpaceOnUse"><stop stop-color="#E58200" stop-opacity="0"/><stop offset=".438" stop-color="#C4602C" stop-opacity=".439"/><stop offset=".795" stop-color="#AE4948" stop-opacity=".796"/><stop offset="1" stop-color="#A64153"/></linearGradient><linearGradient id="k" x1="12.263" x2="8.873" y1="22.011" y2="9.194" gradientUnits="userSpaceOnUse"><stop stop-color="#FF0084"/><stop offset=".234" stop-color="#FF216E"/><stop offset=".573" stop-color="#FF4B52"/><stop offset=".84" stop-color="#FF6440"/><stop offset="1" stop-color="#FF6E3A"/></linearGradient><linearGradient id="l" x1="21.083" x2="22.241" y1="22.62" y2="6.908" gradientUnits="userSpaceOnUse"><stop stop-color="#FF0084"/><stop offset=".234" stop-color="#FF216E"/><stop offset=".573" stop-color="#FF4B52"/><stop offset=".84" stop-color="#FF6440"/><stop offset="1" stop-color="#FF6E3A"/></linearGradient><linearGradient id="m" x1="11.553" x2="11.314" y1="19.735" y2="14.873" gradientUnits="userSpaceOnUse"><stop stop-color="#E58200" stop-opacity="0"/><stop offset=".438" stop-color="#C4602C" stop-opacity=".439"/><stop offset=".795" stop-color="#AE4948" stop-opacity=".796"/><stop offset="1" stop-color="#A64153"/></linearGradient><linearGradient id="n" x1="10.415" x2="18.551" y1="16.127" y2="9.555" gradientUnits="userSpaceOnUse"><stop stop-color="#E58200" stop-opacity="0"/><stop offset=".438" stop-color="#C4602C" stop-opacity=".439"/><stop offset=".795" stop-color="#AE4948" stop-opacity=".796"/><stop offset="1" stop-color="#A64153"/></linearGradient><linearGradient id="o" x1="20.781" x2="20.974" y1="19.646" y2="14.781" gradientUnits="userSpaceOnUse"><stop stop-color="#E58200" stop-opacity="0"/><stop offset=".438" stop-color="#C4602C" stop-opacity=".439"/><stop offset=".795" stop-color="#AE4948" stop-opacity=".796"/><stop offset="1" stop-color="#A64153"/></linearGradient><linearGradient id="p" x1="21.888" x2="13.69" y1="16.026" y2="9.532" gradientUnits="userSpaceOnUse"><stop stop-color="#E58200" stop-opacity="0"/><stop offset=".438" stop-color="#C4602C" stop-opacity=".439"/><stop offset=".795" stop-color="#AE4948" stop-opacity=".796"/><stop offset="1" stop-color="#A64153"/></linearGradient><linearGradient id="q" x1="22.69" x2="16.427" y1="19.355" y2="13.092" gradientUnits="userSpaceOnUse"><stop stop-color="#E58200" stop-opacity="0"/><stop offset=".438" stop-color="#C4602C" stop-opacity=".439"/><stop offset=".795" stop-color="#AE4948" stop-opacity=".796"/><stop offset="1" stop-color="#A64153"/></linearGradient><linearGradient id="r" x1="13.834" x2="19.592" y1="12.7" y2="18.458" gradientUnits="userSpaceOnUse"><stop stop-color="#FF6E3A"/><stop offset=".16" stop-color="#FF6440"/><stop offset=".427" stop-color="#FF4B52"/><stop offset=".766" stop-color="#FF216E"/><stop offset="1" stop-color="#FF0084"/></linearGradient><linearGradient id="s" x1="23.753" x2="23.753" y1="24.122" y2="30.309" gradientUnits="userSpaceOnUse"><stop stop-color="#45425A"/><stop offset="1" stop-color="#2D3251"/></linearGradient><linearGradient id="t" x1="28.881" x2="28.881" y1="24.122" y2="30.309" gradientUnits="userSpaceOnUse"><stop stop-color="#45425A"/><stop offset="1" stop-color="#2D3251"/></linearGradient><linearGradient id="u" x1="34.095" x2="34.095" y1="24.122" y2="30.309" gradientUnits="userSpaceOnUse"><stop stop-color="#45425A"/><stop offset="1" stop-color="#2D3251"/></linearGradient><linearGradient id="v" x1="39.316" x2="39.316" y1="24.122" y2="30.309" gradientUnits="userSpaceOnUse"><stop stop-color="#45425A"/><stop offset="1" stop-color="#2D3251"/></linearGradient><linearGradient id="w" x1="44.347" x2="44.347" y1="24.122" y2="30.309" gradientUnits="userSpaceOnUse"><stop stop-color="#45425A"/><stop offset="1" stop-color="#2D3251"/></linearGradient><linearGradient id="x" x1="49.63" x2="49.63" y1="24.122" y2="30.309" gradientUnits="userSpaceOnUse"><stop stop-color="#45425A"/><stop offset="1" stop-color="#2D3251"/></linearGradient><linearGradient id="y" x1="54.471" x2="54.471" y1="24.122" y2="30.309" gradientUnits="userSpaceOnUse"><stop stop-color="#45425A"/><stop offset="1" stop-color="#2D3251"/></linearGradient></defs></svg>