<svg aria-hidden="true" style="position: absolute; width: 0; height: 0; overflow: hidden;" version="1.1" xmlns="http://www.w3.org/2000/svg" xmlns:xlink="http://www.w3.org/1999/xlink">
<defs>
<symbol id="icon-instagram" viewBox="0 0 30 32">
<path fill="#fff" style="fill: var(--color1, #fff)" opacity="0.8" d="M26.027 0h-22.516c-1.939 0-3.511 1.698-3.511 3.795v24.41c0 2.096 1.572 3.795 3.511 3.795h22.516c1.939 0 3.511-1.699 3.511-3.795v-24.41c0-2.096-1.572-3.795-3.511-3.795zM21.231 4.999c0-0.552 0.413-0.999 0.922-0.999h2.769c0.51 0 0.923 0.448 0.923 0.999v3.001c0 0.552-0.413 0.999-0.923 0.999h-2.769c-0.509 0-0.922-0.448-0.922-0.999v-3.001zM14.803 9.898c3.137 0 5.681 2.749 5.681 6.139s-2.544 6.139-5.681 6.139c-3.136 0-5.68-2.748-5.68-6.139s2.543-6.139 5.68-6.139zM26.769 28c0 0.552-0.414 1-0.923 1h-22.154c-0.51 0-0.923-0.448-0.923-1v-15h3.692c-0.481 0.75-0.644 2.149-0.644 3.037 0 5.355 4.032 9.712 8.986 9.712s8.986-4.357 8.986-9.712c0-0.889-0.117-2.266-0.713-3.037h3.693v15z"></path>
</symbol>
<symbol id="icon-twitter" viewBox="0 0 38 32">
<path fill="#fff" style="fill: var(--color1, #fff)" opacity="0.8" d="M36.775 0.592c-1.5 0.925-3.158 1.597-4.931 1.957-1.412-1.569-3.429-2.549-5.663-2.549-4.281 0-7.756 3.617-7.756 8.078 0 0.634 0.067 1.248 0.2 1.839-6.448-0.337-12.164-3.55-15.993-8.443-0.668 1.198-1.050 2.587-1.050 4.066 0 2.801 1.369 5.274 3.452 6.723-1.27-0.039-2.469-0.406-3.517-1.007v0.098c0 3.916 2.675 7.182 6.227 7.921-0.65 0.19-1.337 0.285-2.045 0.285-0.5 0-0.988-0.049-1.46-0.144 0.988 3.208 3.851 5.545 7.247 5.607-2.655 2.167-6.002 3.459-9.636 3.459-0.626 0-1.245-0.037-1.851-0.111 3.433 2.289 7.514 3.626 11.894 3.626 14.273 0 22.075-12.307 22.075-22.984 0-0.352-0.006-0.702-0.019-1.047 1.516-1.139 2.832-2.561 3.868-4.181-1.389 0.642-2.886 1.077-4.455 1.271 1.602-0.999 2.832-2.582 3.412-4.468z"></path>
</symbol>
<symbol id="icon-facebook" viewBox="0 0 30 32">
<path fill="#fff" style="fill: var(--color1, #fff)" opacity="0.8" d="M29.538 30.233c0 0.976-0.73 1.767-1.63 1.767h-7.527v-12.392h3.84l0.575-4.829h-4.415v-3.084c0-1.398 0.359-2.351 2.209-2.351l2.361-0.001v-4.32c-0.409-0.058-1.81-0.19-3.44-0.19-3.404 0-5.734 2.251-5.734 6.384v3.562h-3.849v4.829h3.849v12.392h-14.148c-0.9 0-1.63-0.791-1.63-1.767v-28.466c0-0.976 0.73-1.767 1.63-1.767h26.278c0.9 0 1.63 0.791 1.63 1.767v28.466z"></path>
</symbol>
<symbol id="icon-google" viewBox="0 0 50 32">
<path fill="#fff" style="fill: var(--color1, #fff)" opacity="0.8" d="M15.811 19.168v-6.337h15.184c1.057 7.668-2.133 19.168-15.184 19.168-8.731 0-15.811-7.164-15.811-16.001s7.079-15.999 15.811-15.999c4.097 0 7.829 1.576 10.638 4.163-2.176 2.080-2.874 2.873-3.466 3.547-0.308 0.351-0.589 0.669-1.034 1.12-1.625-1.36-3.396-2.335-6.138-2.335-5.187 0-9.236 4.256-9.236 9.504 0 5.25 4.049 9.506 9.236 9.506 5.125 0 7.208-2.237 8.547-6.345-2.473 0-8.547 0.009-8.547 0.009zM44.299 7.604v5.544h5.478v3.96h-5.478v5.704h-3.913v-5.704h-5.636v-3.96h5.636v-5.544h3.913z"></path>
</symbol>
<symbol id="icon-gift-cards" viewBox="0 0 56 32">
<path  d="M4.206 0h47.64c2.209 0 4 1.791 4 4v23.211c0 2.209-1.791 4-4 4h-47.64c-2.209 0-4-1.791-4-4v-23.211c0-2.209 1.791-4 4-4z"></path>
<path fill="#fff" style="fill: var(--color1, #fff)" d="M20.626 19.114h14.8c0.773 0 1.4 0.627 1.4 1.4s-0.627 1.4-1.4 1.4h-14.8c-0.773 0-1.4-0.627-1.4-1.4s0.627-1.4 1.4-1.4z"></path>
<path fill="#fff" style="fill: var(--color1, #fff)" d="M16.594 11.952h22.865c1.195 0 2.163 0.968 2.163 2.163v0c0 1.195-0.968 2.163-2.163 2.163h-22.865c-1.195 0-2.163-0.968-2.163-2.163v0c0-1.195 0.968-2.163 2.163-2.163z"></path>
</symbol>
<symbol id="icon-bank-building" viewBox="0 0 32 32">
<path d="M30.532 29.084h-29.078c-0.803 0-1.454 0.651-1.454 1.455 0 0.803 0.651 1.454 1.454 1.454h29.077c0.803 0 1.454-0.651 1.454-1.454-0.001-0.804-0.651-1.455-1.454-1.455z"></path>
<path d="M3.271 25.303c-0.803 0-1.454 0.651-1.454 1.454s0.651 1.455 1.454 1.455h25.443c0.803 0 1.454-0.651 1.454-1.455s-0.651-1.454-1.454-1.454h-0.363v-13.086h0.363c0.402 0 0.726-0.325 0.726-0.726s-0.325-0.726-0.726-0.726h-25.443c-0.402 0-0.726 0.325-0.726 0.726s0.325 0.726 0.726 0.726h0.364v13.085h-0.364v0.001zM25.443 12.217v13.085h-4.361v-13.085h4.361zM18.173 12.217v13.085h-4.361v-13.085h4.361zM6.542 12.217h4.361v13.085h-4.361v-13.085z"></path>
<path d="M1.454 9.457h29.077c0.005 0 0.010 0 0.014 0 0.804 0 1.454-0.651 1.454-1.454 0-0.639-0.411-1.18-0.982-1.376l-14.427-6.492c-0.379-0.17-0.813-0.17-1.193 0l-14.54 6.542c-0.626 0.282-0.97 0.961-0.825 1.631s0.736 1.149 1.422 1.149z"></path>
</symbol>
<symbol id="icon-eth" viewBox="0 0 18 32">
<path d="M8.583 20.858l-8.371-3.982 8.371 14.629 8.371-14.629-8.371 3.982z"></path>
<path d="M16.040 13.909l-7.46-12.956-7.468 12.971 7.468-3.543 7.46 3.528z"></path>
<path d="M1.762 15.605l6.821 3.231 6.832-3.236-6.832-3.23-6.821 3.236z"></path>
</symbol>
<symbol id="icon-bitcoin" viewBox="0 0 31 32">
<path d="M15.44-0c-8.521-0.007-15.433 7.151-15.44 15.988s6.895 16.005 15.417 16.012c8.52-0.007 15.427-7.164 15.44-16 0-8.832-6.9-15.993-15.417-16zM15.417 29.337c-7.103 0-12.861-5.972-12.861-13.338s5.758-13.337 12.861-13.337c7.1 0.007 12.854 5.974 12.861 13.337 0 7.366-5.758 13.338-12.861 13.338z"></path>
<path d="M19.584 15.22c1.032-0.603 1.59-1.81 1.397-3.022-0.239-1.87-2.388-2.576-4.084-2.724v-2.811h-1.672v2.786h-1.122v-2.786h-1.672v2.786h-3.368v1.796h1.254c0.561 0 0.836 0.173 0.836 0.644v7.715c0 0.644-0.31 0.842-0.645 0.842h-1.278v1.833h3.248v2.848h1.684v-2.848h1.122v2.848h1.636v-2.848h0.358c3.439 0 4.586-1.746 4.586-4.124-0.027-1.402-0.965-2.608-2.281-2.935zM14.103 11.356h1.194c0.836 0 2.484 0.149 2.484 1.56 0.057 0.921-0.586 1.729-1.469 1.845h-2.209v-3.406zM15.954 20.272v-0.012h-1.851v-3.715h2.15c0.502 0 2.388 0.173 2.388 1.56s-0.896 2.167-2.687 2.167z"></path>
</symbol>
<symbol id="icon-support" viewBox="0 0 31 32">
<path d="M18.881 21.581h-6.46c-5.309 0-9.634 4.326-9.634 9.634h25.758c-0.028-5.281-4.354-9.634-9.663-9.634z"></path>
<path d="M16.803 17.171c0.506 0 0.983 0.169 1.348 0.478h2.331c1.152-1.208 1.854-2.809 1.854-4.607 0-3.708-3.006-6.685-6.685-6.685s-6.685 2.977-6.685 6.685c0 2.5 1.376 4.691 3.427 5.843 0.225-0.983 1.095-1.713 2.107-1.713h2.303z"></path>
<path d="M5.764 13.604c0.084 0.702 0.421 1.348 0.899 1.826 0.365 0.365 0.843 0.646 1.376 0.815-0.028-0.112-0.028-0.225-0.028-0.309v-5.449c0-0.112 0-0.225 0.028-0.337-0.534 0.14-0.983 0.421-1.376 0.815-0.028 0.028-0.084 0.084-0.112 0.112v-0.225c0-0.534 0.056-1.067 0.14-1.573 0.084-0.534 0.225-1.039 0.421-1.517 0.169-0.506 0.393-0.983 0.674-1.433 0.253-0.449 0.562-0.899 0.899-1.292 0.028-0.028 0.056-0.084 0.056-0.112 0.253 0.028 0.506-0.056 0.674-0.225 1.713-1.713 3.961-2.556 6.18-2.556s4.494 0.843 6.18 2.556c0.197 0.197 0.449 0.253 0.674 0.225 0.028 0.028 0.028 0.084 0.056 0.112 0.337 0.393 0.646 0.843 0.899 1.292s0.477 0.927 0.674 1.433c0.169 0.506 0.309 1.011 0.421 1.545 0.084 0.506 0.14 1.039 0.14 1.573v0.225c-0.028-0.056-0.084-0.084-0.112-0.112-0.365-0.365-0.843-0.646-1.376-0.815 0.028 0.112 0.028 0.225 0.028 0.337v5.421c0 0.112 0 0.225-0.028 0.309 0.14-0.028 0.281-0.084 0.421-0.14v1.77c0 0.197-0.028 0.393-0.056 0.534s-0.084 0.225-0.14 0.309c-0.056 0.056-0.14 0.112-0.225 0.14-0.112 0.028-0.225 0.056-0.365 0.056h-5.196c-0.169-0.281-0.449-0.478-0.815-0.478h-2.303c-0.506 0-0.899 0.421-0.899 0.899 0.028 0.506 0.421 0.899 0.927 0.899h2.303c0.337 0 0.646-0.197 0.815-0.477h5.421c0.197 0 0.365-0.056 0.534-0.112 0.225-0.084 0.393-0.197 0.562-0.365 0.14-0.169 0.253-0.365 0.337-0.618 0.056-0.225 0.112-0.506 0.112-0.815v-2.331c0.028-0.028 0.056-0.056 0.084-0.084 0.477-0.477 0.815-1.124 0.899-1.826 0.028-0.028 0.056-0.028 0.056-0.056 0.084-0.084 0.14-0.225 0.14-0.337v-2.331c0-0.59-0.056-1.18-0.14-1.742-0.169-0.59-0.309-1.152-0.506-1.713s-0.449-1.095-0.758-1.601c-0.281-0.506-0.618-0.983-1.011-1.433-0.028-0.056-0.084-0.084-0.14-0.112 0.056-0.253-0.028-0.562-0.225-0.758-2.022-2.022-4.663-3.034-7.331-3.034s-5.309 1.011-7.359 3.034c-0.197 0.197-0.281 0.506-0.225 0.758-0.056 0.028-0.084 0.056-0.14 0.112-0.393 0.449-0.73 0.927-1.011 1.433s-0.534 1.039-0.758 1.601c-0.197 0.562-0.365 1.124-0.449 1.713-0.112 0.562-0.14 1.152-0.14 1.742v2.331c0 0.14 0.056 0.253 0.14 0.337 0.028 0.028 0.056 0.028 0.056 0.056z"></path>
</symbol>
<symbol id="icon-customer-review" viewBox="0 0 31 32">
<path d="M12.905 17.652c0 1.489 1.18 2.701 2.63 2.701s2.63-1.212 2.63-2.701c0-1.489-1.18-2.701-2.63-2.701s-2.63 1.212-2.63 2.701z"></path>
<path d="M15.534 22.153c-2.9 0-5.26 2.423-5.26 5.402v3.661h10.519v-3.661c0-2.979-2.359-5.402-5.259-5.402z"></path>
<path d="M8.522 19.452c0-1.489-1.18-2.701-2.63-2.701s-2.63 1.212-2.63 2.701c0 1.489 1.18 2.701 2.63 2.701s2.63-1.212 2.63-2.701z"></path>
<path d="M27.807 19.452c0-1.489-1.18-2.701-2.63-2.701s-2.63 1.212-2.63 2.701c0 1.489 1.18 2.701 2.63 2.701s2.63-1.212 2.63-2.701z"></path>
<path d="M5.015 0.487l-1.334 3.229-3.108 0.45 2.241 2.187-0.515 3.197 2.715-1.458 2.715 1.458-0.515-3.197 2.183-2.187-3.017-0.45-1.366-3.229z"></path>
<path d="M16.901 3.716l-1.366-3.229-1.334 3.229-3.049 0.45 2.183 2.187-0.515 3.197 2.715-1.458 2.715 1.458-0.515-3.197 2.183-2.187-3.017-0.45z"></path>
<path d="M26.053 0.487l-1.334 3.229-3.049 0.45 2.183 2.187-0.515 3.197 2.715-1.458 2.715 1.458-0.515-3.197 2.241-2.187-3.075-0.45-1.366-3.229z"></path>
<path d="M25.177 23.954c-1.165 0-2.231 0.402-3.103 1.060 0.293 0.793 0.473 1.644 0.473 2.541v3.661h7.948v-1.861c0-2.983-2.413-5.402-5.318-5.402z"></path>
<path d="M0.574 29.355v1.861h7.948v-3.661c0-0.897 0.18-1.748 0.473-2.541-0.872-0.658-1.938-1.060-3.103-1.060-2.905 0-5.318 2.418-5.318 5.402z"></path>
</symbol>
<symbol id="icon-medal" viewBox="0 0 32 32">
<path d="M15.737 6.967c-3.002 0-5.445 2.442-5.445 5.445s2.443 5.445 5.445 5.445c3.002 0 5.445-2.442 5.445-5.445s-2.442-5.445-5.445-5.445z"></path>
<path d="M27.079 16.097l-1.651-3.685 1.651-3.685-3.502-2.011-0.83-3.952-4.015 0.432-2.994-2.709-2.995 2.709-4.015-0.431-0.83 3.952-3.502 2.011 1.651 3.685-1.651 3.685 3.502 2.011 0.45 2.141-3.738 7.943 3.901 0.051 2.526 2.973 3.674-7.808 1.027 0.929 1.026-0.929 3.674 7.808 2.526-2.973 3.901-0.051-3.738-7.943 0.45-2.141 3.502-2.011zM15.738 19.657c-3.995 0-7.245-3.25-7.245-7.245s3.25-7.245 7.245-7.245c3.995 0 7.245 3.25 7.245 7.245s-3.25 7.245-7.245 7.245z"></path>
</symbol>
<symbol id="icon-quality" viewBox="0 0 31 32">
<path d="M0.159 11.314l13.308 17.308-6.037-17.308h-7.272z"></path>
<path d="M8.617 11.314l6.431 18.441 6.558-18.441h-12.989z"></path>
<path d="M16.481 29.069l13.652-17.755h-7.338l-6.313 17.755z"></path>
<path d="M24.925 1.979h-8.609l5.903 7.611 2.706-7.611z"></path>
<path d="M21.216 10.147l-6.070-7.826-6.069 7.826h12.14z"></path>
<path d="M13.976 1.979h-8.615l2.673 7.663 5.942-7.663z"></path>
<path d="M4.433 2.718l-4.433 7.43h7.023l-2.591-7.43z"></path>
<path d="M30.292 10.147l-4.437-7.437-2.645 7.437h7.083z"></path>
</symbol>
</defs>
</svg>
