<svg aria-hidden="true" style="position: absolute; width: 0; height: 0; overflow: hidden;" version="1.1" xmlns="http://www.w3.org/2000/svg" xmlns:xlink="http://www.w3.org/1999/xlink">
<defs>
<symbol id="icon-instagram" viewBox="0 0 30 32">
<path fill="#fff" style="fill: var(--color1, #fff)" opacity="0.8" d="M26.027 0h-22.516c-1.939 0-3.511 1.698-3.511 3.795v24.41c0 2.096 1.572 3.795 3.511 3.795h22.516c1.939 0 3.511-1.699 3.511-3.795v-24.41c0-2.096-1.572-3.795-3.511-3.795zM21.231 4.999c0-0.552 0.413-0.999 0.922-0.999h2.769c0.51 0 0.923 0.448 0.923 0.999v3.001c0 0.552-0.413 0.999-0.923 0.999h-2.769c-0.509 0-0.922-0.448-0.922-0.999v-3.001zM14.803 9.898c3.137 0 5.681 2.749 5.681 6.139s-2.544 6.139-5.681 6.139c-3.136 0-5.68-2.748-5.68-6.139s2.543-6.139 5.68-6.139zM26.769 28c0 0.552-0.414 1-0.923 1h-22.154c-0.51 0-0.923-0.448-0.923-1v-15h3.692c-0.481 0.75-0.644 2.149-0.644 3.037 0 5.355 4.032 9.712 8.986 9.712s8.986-4.357 8.986-9.712c0-0.889-0.117-2.266-0.713-3.037h3.693v15z"></path>
</symbol>
<symbol id="icon-twitter" viewBox="0 0 38 32">
<path fill="#fff" style="fill: var(--color1, #fff)" opacity="0.8" d="M36.775 0.592c-1.5 0.925-3.158 1.597-4.931 1.957-1.412-1.569-3.429-2.549-5.663-2.549-4.281 0-7.756 3.617-7.756 8.078 0 0.634 0.067 1.248 0.2 1.839-6.448-0.337-12.164-3.55-15.993-8.443-0.668 1.198-1.050 2.587-1.050 4.066 0 2.801 1.369 5.274 3.452 6.723-1.27-0.039-2.469-0.406-3.517-1.007v0.098c0 3.916 2.675 7.182 6.227 7.921-0.65 0.19-1.337 0.285-2.045 0.285-0.5 0-0.988-0.049-1.46-0.144 0.988 3.208 3.851 5.545 7.247 5.607-2.655 2.167-6.002 3.459-9.636 3.459-0.626 0-1.245-0.037-1.851-0.111 3.433 2.289 7.514 3.626 11.894 3.626 14.273 0 22.075-12.307 22.075-22.984 0-0.352-0.006-0.702-0.019-1.047 1.516-1.139 2.832-2.561 3.868-4.181-1.389 0.642-2.886 1.077-4.455 1.271 1.602-0.999 2.832-2.582 3.412-4.468z"></path>
</symbol>
<symbol id="icon-facebook" viewBox="0 0 30 32">
<path fill="#fff" style="fill: var(--color1, #fff)" opacity="0.8" d="M29.538 30.233c0 0.976-0.73 1.767-1.63 1.767h-7.527v-12.392h3.84l0.575-4.829h-4.415v-3.084c0-1.398 0.359-2.351 2.209-2.351l2.361-0.001v-4.32c-0.409-0.058-1.81-0.19-3.44-0.19-3.404 0-5.734 2.251-5.734 6.384v3.562h-3.849v4.829h3.849v12.392h-14.148c-0.9 0-1.63-0.791-1.63-1.767v-28.466c0-0.976 0.73-1.767 1.63-1.767h26.278c0.9 0 1.63 0.791 1.63 1.767v28.466z"></path>
</symbol>
<symbol id="icon-google" viewBox="0 0 50 32">
<path fill="#fff" style="fill: var(--color1, #fff)" opacity="0.8" d="M15.811 19.168v-6.337h15.184c1.057 7.668-2.133 19.168-15.184 19.168-8.731 0-15.811-7.164-15.811-16.001s7.079-15.999 15.811-15.999c4.097 0 7.829 1.576 10.638 4.163-2.176 2.080-2.874 2.873-3.466 3.547-0.308 0.351-0.589 0.669-1.034 1.12-1.625-1.36-3.396-2.335-6.138-2.335-5.187 0-9.236 4.256-9.236 9.504 0 5.25 4.049 9.506 9.236 9.506 5.125 0 7.208-2.237 8.547-6.345-2.473 0-8.547 0.009-8.547 0.009zM44.299 7.604v5.544h5.478v3.96h-5.478v5.704h-3.913v-5.704h-5.636v-3.96h5.636v-5.544h3.913z"></path>
</symbol>
<symbol id="icon-gift-cards" viewBox="0 0 56 32">
<path  d="M4.206 0h47.64c2.209 0 4 1.791 4 4v23.211c0 2.209-1.791 4-4 4h-47.64c-2.209 0-4-1.791-4-4v-23.211c0-2.209 1.791-4 4-4z"></path>
<path fill="#fff" style="fill: var(--color1, #fff)" d="M20.626 19.114h14.8c0.773 0 1.4 0.627 1.4 1.4s-0.627 1.4-1.4 1.4h-14.8c-0.773 0-1.4-0.627-1.4-1.4s0.627-1.4 1.4-1.4z"></path>
<path fill="#fff" style="fill: var(--color1, #fff)" d="M16.594 11.952h22.865c1.195 0 2.163 0.968 2.163 2.163v0c0 1.195-0.968 2.163-2.163 2.163h-22.865c-1.195 0-2.163-0.968-2.163-2.163v0c0-1.195 0.968-2.163 2.163-2.163z"></path>
</symbol>
<symbol id="icon-bank-building" viewBox="0 0 32 32">
<path d="M30.532 29.084h-29.078c-0.803 0-1.454 0.651-1.454 1.455 0 0.803 0.651 1.454 1.454 1.454h29.077c0.803 0 1.454-0.651 1.454-1.454-0.001-0.804-0.651-1.455-1.454-1.455z"></path>
<path d="M3.271 25.303c-0.803 0-1.454 0.651-1.454 1.454s0.651 1.455 1.454 1.455h25.443c0.803 0 1.454-0.651 1.454-1.455s-0.651-1.454-1.454-1.454h-0.363v-13.086h0.363c0.402 0 0.726-0.325 0.726-0.726s-0.325-0.726-0.726-0.726h-25.443c-0.402 0-0.726 0.325-0.726 0.726s0.325 0.726 0.726 0.726h0.364v13.085h-0.364v0.001zM25.443 12.217v13.085h-4.361v-13.085h4.361zM18.173 12.217v13.085h-4.361v-13.085h4.361zM6.542 12.217h4.361v13.085h-4.361v-13.085z"></path>
<path d="M1.454 9.457h29.077c0.005 0 0.010 0 0.014 0 0.804 0 1.454-0.651 1.454-1.454 0-0.639-0.411-1.18-0.982-1.376l-14.427-6.492c-0.379-0.17-0.813-0.17-1.193 0l-14.54 6.542c-0.626 0.282-0.97 0.961-0.825 1.631s0.736 1.149 1.422 1.149z"></path>
</symbol>
<symbol id="icon-eth" viewBox="0 0 18 32">
<path d="M8.583 20.858l-8.371-3.982 8.371 14.629 8.371-14.629-8.371 3.982z"></path>
<path d="M16.040 13.909l-7.46-12.956-7.468 12.971 7.468-3.543 7.46 3.528z"></path>
<path d="M1.762 15.605l6.821 3.231 6.832-3.236-6.832-3.23-6.821 3.236z"></path>
</symbol>
<symbol id="icon-bitcoin" viewBox="0 0 31 32">
<path d="M15.44-0c-8.521-0.007-15.433 7.151-15.44 15.988s6.895 16.005 15.417 16.012c8.52-0.007 15.427-7.164 15.44-16 0-8.832-6.9-15.993-15.417-16zM15.417 29.337c-7.103 0-12.861-5.972-12.861-13.338s5.758-13.337 12.861-13.337c7.1 0.007 12.854 5.974 12.861 13.337 0 7.366-5.758 13.338-12.861 13.338z"></path>
<path d="M19.584 15.22c1.032-0.603 1.59-1.81 1.397-3.022-0.239-1.87-2.388-2.576-4.084-2.724v-2.811h-1.672v2.786h-1.122v-2.786h-1.672v2.786h-3.368v1.796h1.254c0.561 0 0.836 0.173 0.836 0.644v7.715c0 0.644-0.31 0.842-0.645 0.842h-1.278v1.833h3.248v2.848h1.684v-2.848h1.122v2.848h1.636v-2.848h0.358c3.439 0 4.586-1.746 4.586-4.124-0.027-1.402-0.965-2.608-2.281-2.935zM14.103 11.356h1.194c0.836 0 2.484 0.149 2.484 1.56 0.057 0.921-0.586 1.729-1.469 1.845h-2.209v-3.406zM15.954 20.272v-0.012h-1.851v-3.715h2.15c0.502 0 2.388 0.173 2.388 1.56s-0.896 2.167-2.687 2.167z"></path>
</symbol>
</defs>
</svg>
