<svg aria-hidden="true" style="position: absolute; width: 0; height: 0; overflow: hidden;" version="1.1" xmlns="http://www.w3.org/2000/svg" xmlns:xlink="http://www.w3.org/1999/xlink">
<defs>
<symbol id="icon-instagram" viewBox="0 0 30 32">
<path fill="#fff" style="fill: var(--color1, #fff)" opacity="0.8" d="M26.027 0h-22.516c-1.939 0-3.511 1.698-3.511 3.795v24.41c0 2.096 1.572 3.795 3.511 3.795h22.516c1.939 0 3.511-1.699 3.511-3.795v-24.41c0-2.096-1.572-3.795-3.511-3.795zM21.231 4.999c0-0.552 0.413-0.999 0.922-0.999h2.769c0.51 0 0.923 0.448 0.923 0.999v3.001c0 0.552-0.413 0.999-0.923 0.999h-2.769c-0.509 0-0.922-0.448-0.922-0.999v-3.001zM14.803 9.898c3.137 0 5.681 2.749 5.681 6.139s-2.544 6.139-5.681 6.139c-3.136 0-5.68-2.748-5.68-6.139s2.543-6.139 5.68-6.139zM26.769 28c0 0.552-0.414 1-0.923 1h-22.154c-0.51 0-0.923-0.448-0.923-1v-15h3.692c-0.481 0.75-0.644 2.149-0.644 3.037 0 5.355 4.032 9.712 8.986 9.712s8.986-4.357 8.986-9.712c0-0.889-0.117-2.266-0.713-3.037h3.693v15z"></path>
</symbol>
<symbol id="icon-twitter" viewBox="0 0 38 32">
<path fill="#fff" style="fill: var(--color1, #fff)" opacity="0.8" d="M36.775 0.592c-1.5 0.925-3.158 1.597-4.931 1.957-1.412-1.569-3.429-2.549-5.663-2.549-4.281 0-7.756 3.617-7.756 8.078 0 0.634 0.067 1.248 0.2 1.839-6.448-0.337-12.164-3.55-15.993-8.443-0.668 1.198-1.050 2.587-1.050 4.066 0 2.801 1.369 5.274 3.452 6.723-1.27-0.039-2.469-0.406-3.517-1.007v0.098c0 3.916 2.675 7.182 6.227 7.921-0.65 0.19-1.337 0.285-2.045 0.285-0.5 0-0.988-0.049-1.46-0.144 0.988 3.208 3.851 5.545 7.247 5.607-2.655 2.167-6.002 3.459-9.636 3.459-0.626 0-1.245-0.037-1.851-0.111 3.433 2.289 7.514 3.626 11.894 3.626 14.273 0 22.075-12.307 22.075-22.984 0-0.352-0.006-0.702-0.019-1.047 1.516-1.139 2.832-2.561 3.868-4.181-1.389 0.642-2.886 1.077-4.455 1.271 1.602-0.999 2.832-2.582 3.412-4.468z"></path>
</symbol>
<symbol id="icon-facebook" viewBox="0 0 30 32">
<path fill="#fff" style="fill: var(--color1, #fff)" opacity="0.8" d="M29.538 30.233c0 0.976-0.73 1.767-1.63 1.767h-7.527v-12.392h3.84l0.575-4.829h-4.415v-3.084c0-1.398 0.359-2.351 2.209-2.351l2.361-0.001v-4.32c-0.409-0.058-1.81-0.19-3.44-0.19-3.404 0-5.734 2.251-5.734 6.384v3.562h-3.849v4.829h3.849v12.392h-14.148c-0.9 0-1.63-0.791-1.63-1.767v-28.466c0-0.976 0.73-1.767 1.63-1.767h26.278c0.9 0 1.63 0.791 1.63 1.767v28.466z"></path>
</symbol>
<symbol id="icon-google" viewBox="0 0 50 32">
<path fill="#fff" style="fill: var(--color1, #fff)" opacity="0.8" d="M15.811 19.168v-6.337h15.184c1.057 7.668-2.133 19.168-15.184 19.168-8.731 0-15.811-7.164-15.811-16.001s7.079-15.999 15.811-15.999c4.097 0 7.829 1.576 10.638 4.163-2.176 2.080-2.874 2.873-3.466 3.547-0.308 0.351-0.589 0.669-1.034 1.12-1.625-1.36-3.396-2.335-6.138-2.335-5.187 0-9.236 4.256-9.236 9.504 0 5.25 4.049 9.506 9.236 9.506 5.125 0 7.208-2.237 8.547-6.345-2.473 0-8.547 0.009-8.547 0.009zM44.299 7.604v5.544h5.478v3.96h-5.478v5.704h-3.913v-5.704h-5.636v-3.96h5.636v-5.544h3.913z"></path>
</symbol>
<symbol id="icon-gift-cards" viewBox="0 0 56 32">
<path  d="M4.206 0h47.64c2.209 0 4 1.791 4 4v23.211c0 2.209-1.791 4-4 4h-47.64c-2.209 0-4-1.791-4-4v-23.211c0-2.209 1.791-4 4-4z"></path>
<path fill="#fff" style="fill: var(--color1, #fff)" d="M20.626 19.114h14.8c0.773 0 1.4 0.627 1.4 1.4s-0.627 1.4-1.4 1.4h-14.8c-0.773 0-1.4-0.627-1.4-1.4s0.627-1.4 1.4-1.4z"></path>
<path fill="#fff" style="fill: var(--color1, #fff)" d="M16.594 11.952h22.865c1.195 0 2.163 0.968 2.163 2.163v0c0 1.195-0.968 2.163-2.163 2.163h-22.865c-1.195 0-2.163-0.968-2.163-2.163v0c0-1.195 0.968-2.163 2.163-2.163z"></path>
</symbol>
<symbol id="icon-bank-building" viewBox="0 0 32 32">
<path d="M30.532 29.084h-29.078c-0.803 0-1.454 0.651-1.454 1.455 0 0.803 0.651 1.454 1.454 1.454h29.077c0.803 0 1.454-0.651 1.454-1.454-0.001-0.804-0.651-1.455-1.454-1.455z"></path>
<path d="M3.271 25.303c-0.803 0-1.454 0.651-1.454 1.454s0.651 1.455 1.454 1.455h25.443c0.803 0 1.454-0.651 1.454-1.455s-0.651-1.454-1.454-1.454h-0.363v-13.086h0.363c0.402 0 0.726-0.325 0.726-0.726s-0.325-0.726-0.726-0.726h-25.443c-0.402 0-0.726 0.325-0.726 0.726s0.325 0.726 0.726 0.726h0.364v13.085h-0.364v0.001zM25.443 12.217v13.085h-4.361v-13.085h4.361zM18.173 12.217v13.085h-4.361v-13.085h4.361zM6.542 12.217h4.361v13.085h-4.361v-13.085z"></path>
<path d="M1.454 9.457h29.077c0.005 0 0.010 0 0.014 0 0.804 0 1.454-0.651 1.454-1.454 0-0.639-0.411-1.18-0.982-1.376l-14.427-6.492c-0.379-0.17-0.813-0.17-1.193 0l-14.54 6.542c-0.626 0.282-0.97 0.961-0.825 1.631s0.736 1.149 1.422 1.149z"></path>
</symbol>
<symbol id="icon-eth" viewBox="0 0 18 32">
<path d="M8.583 20.858l-8.371-3.982 8.371 14.629 8.371-14.629-8.371 3.982z"></path>
<path d="M16.040 13.909l-7.46-12.956-7.468 12.971 7.468-3.543 7.46 3.528z"></path>
<path d="M1.762 15.605l6.821 3.231 6.832-3.236-6.832-3.23-6.821 3.236z"></path>
</symbol>
<symbol id="icon-bitcoin" viewBox="0 0 31 32">
<path d="M15.44-0c-8.521-0.007-15.433 7.151-15.44 15.988s6.895 16.005 15.417 16.012c8.52-0.007 15.427-7.164 15.44-16 0-8.832-6.9-15.993-15.417-16zM15.417 29.337c-7.103 0-12.861-5.972-12.861-13.338s5.758-13.337 12.861-13.337c7.1 0.007 12.854 5.974 12.861 13.337 0 7.366-5.758 13.338-12.861 13.338z"></path>
<path d="M19.584 15.22c1.032-0.603 1.59-1.81 1.397-3.022-0.239-1.87-2.388-2.576-4.084-2.724v-2.811h-1.672v2.786h-1.122v-2.786h-1.672v2.786h-3.368v1.796h1.254c0.561 0 0.836 0.173 0.836 0.644v7.715c0 0.644-0.31 0.842-0.645 0.842h-1.278v1.833h3.248v2.848h1.684v-2.848h1.122v2.848h1.636v-2.848h0.358c3.439 0 4.586-1.746 4.586-4.124-0.027-1.402-0.965-2.608-2.281-2.935zM14.103 11.356h1.194c0.836 0 2.484 0.149 2.484 1.56 0.057 0.921-0.586 1.729-1.469 1.845h-2.209v-3.406zM15.954 20.272v-0.012h-1.851v-3.715h2.15c0.502 0 2.388 0.173 2.388 1.56s-0.896 2.167-2.687 2.167z"></path>
</symbol>
<symbol id="icon-support" viewBox="0 0 31 32">
<path d="M18.881 21.581h-6.46c-5.309 0-9.634 4.326-9.634 9.634h25.758c-0.028-5.281-4.354-9.634-9.663-9.634z"></path>
<path d="M16.803 17.171c0.506 0 0.983 0.169 1.348 0.478h2.331c1.152-1.208 1.854-2.809 1.854-4.607 0-3.708-3.006-6.685-6.685-6.685s-6.685 2.977-6.685 6.685c0 2.5 1.376 4.691 3.427 5.843 0.225-0.983 1.095-1.713 2.107-1.713h2.303z"></path>
<path d="M5.764 13.604c0.084 0.702 0.421 1.348 0.899 1.826 0.365 0.365 0.843 0.646 1.376 0.815-0.028-0.112-0.028-0.225-0.028-0.309v-5.449c0-0.112 0-0.225 0.028-0.337-0.534 0.14-0.983 0.421-1.376 0.815-0.028 0.028-0.084 0.084-0.112 0.112v-0.225c0-0.534 0.056-1.067 0.14-1.573 0.084-0.534 0.225-1.039 0.421-1.517 0.169-0.506 0.393-0.983 0.674-1.433 0.253-0.449 0.562-0.899 0.899-1.292 0.028-0.028 0.056-0.084 0.056-0.112 0.253 0.028 0.506-0.056 0.674-0.225 1.713-1.713 3.961-2.556 6.18-2.556s4.494 0.843 6.18 2.556c0.197 0.197 0.449 0.253 0.674 0.225 0.028 0.028 0.028 0.084 0.056 0.112 0.337 0.393 0.646 0.843 0.899 1.292s0.477 0.927 0.674 1.433c0.169 0.506 0.309 1.011 0.421 1.545 0.084 0.506 0.14 1.039 0.14 1.573v0.225c-0.028-0.056-0.084-0.084-0.112-0.112-0.365-0.365-0.843-0.646-1.376-0.815 0.028 0.112 0.028 0.225 0.028 0.337v5.421c0 0.112 0 0.225-0.028 0.309 0.14-0.028 0.281-0.084 0.421-0.14v1.77c0 0.197-0.028 0.393-0.056 0.534s-0.084 0.225-0.14 0.309c-0.056 0.056-0.14 0.112-0.225 0.14-0.112 0.028-0.225 0.056-0.365 0.056h-5.196c-0.169-0.281-0.449-0.478-0.815-0.478h-2.303c-0.506 0-0.899 0.421-0.899 0.899 0.028 0.506 0.421 0.899 0.927 0.899h2.303c0.337 0 0.646-0.197 0.815-0.477h5.421c0.197 0 0.365-0.056 0.534-0.112 0.225-0.084 0.393-0.197 0.562-0.365 0.14-0.169 0.253-0.365 0.337-0.618 0.056-0.225 0.112-0.506 0.112-0.815v-2.331c0.028-0.028 0.056-0.056 0.084-0.084 0.477-0.477 0.815-1.124 0.899-1.826 0.028-0.028 0.056-0.028 0.056-0.056 0.084-0.084 0.14-0.225 0.14-0.337v-2.331c0-0.59-0.056-1.18-0.14-1.742-0.169-0.59-0.309-1.152-0.506-1.713s-0.449-1.095-0.758-1.601c-0.281-0.506-0.618-0.983-1.011-1.433-0.028-0.056-0.084-0.084-0.14-0.112 0.056-0.253-0.028-0.562-0.225-0.758-2.022-2.022-4.663-3.034-7.331-3.034s-5.309 1.011-7.359 3.034c-0.197 0.197-0.281 0.506-0.225 0.758-0.056 0.028-0.084 0.056-0.14 0.112-0.393 0.449-0.73 0.927-1.011 1.433s-0.534 1.039-0.758 1.601c-0.197 0.562-0.365 1.124-0.449 1.713-0.112 0.562-0.14 1.152-0.14 1.742v2.331c0 0.14 0.056 0.253 0.14 0.337 0.028 0.028 0.056 0.028 0.056 0.056z"></path>
</symbol>
<symbol id="icon-customer-review" viewBox="0 0 31 32">
<path d="M12.905 17.652c0 1.489 1.18 2.701 2.63 2.701s2.63-1.212 2.63-2.701c0-1.489-1.18-2.701-2.63-2.701s-2.63 1.212-2.63 2.701z"></path>
<path d="M15.534 22.153c-2.9 0-5.26 2.423-5.26 5.402v3.661h10.519v-3.661c0-2.979-2.359-5.402-5.259-5.402z"></path>
<path d="M8.522 19.452c0-1.489-1.18-2.701-2.63-2.701s-2.63 1.212-2.63 2.701c0 1.489 1.18 2.701 2.63 2.701s2.63-1.212 2.63-2.701z"></path>
<path d="M27.807 19.452c0-1.489-1.18-2.701-2.63-2.701s-2.63 1.212-2.63 2.701c0 1.489 1.18 2.701 2.63 2.701s2.63-1.212 2.63-2.701z"></path>
<path d="M5.015 0.487l-1.334 3.229-3.108 0.45 2.241 2.187-0.515 3.197 2.715-1.458 2.715 1.458-0.515-3.197 2.183-2.187-3.017-0.45-1.366-3.229z"></path>
<path d="M16.901 3.716l-1.366-3.229-1.334 3.229-3.049 0.45 2.183 2.187-0.515 3.197 2.715-1.458 2.715 1.458-0.515-3.197 2.183-2.187-3.017-0.45z"></path>
<path d="M26.053 0.487l-1.334 3.229-3.049 0.45 2.183 2.187-0.515 3.197 2.715-1.458 2.715 1.458-0.515-3.197 2.241-2.187-3.075-0.45-1.366-3.229z"></path>
<path d="M25.177 23.954c-1.165 0-2.231 0.402-3.103 1.060 0.293 0.793 0.473 1.644 0.473 2.541v3.661h7.948v-1.861c0-2.983-2.413-5.402-5.318-5.402z"></path>
<path d="M0.574 29.355v1.861h7.948v-3.661c0-0.897 0.18-1.748 0.473-2.541-0.872-0.658-1.938-1.060-3.103-1.060-2.905 0-5.318 2.418-5.318 5.402z"></path>
</symbol>
<symbol id="icon-medal" viewBox="0 0 32 32">
<path d="M15.737 6.967c-3.002 0-5.445 2.442-5.445 5.445s2.443 5.445 5.445 5.445c3.002 0 5.445-2.442 5.445-5.445s-2.442-5.445-5.445-5.445z"></path>
<path d="M27.079 16.097l-1.651-3.685 1.651-3.685-3.502-2.011-0.83-3.952-4.015 0.432-2.994-2.709-2.995 2.709-4.015-0.431-0.83 3.952-3.502 2.011 1.651 3.685-1.651 3.685 3.502 2.011 0.45 2.141-3.738 7.943 3.901 0.051 2.526 2.973 3.674-7.808 1.027 0.929 1.026-0.929 3.674 7.808 2.526-2.973 3.901-0.051-3.738-7.943 0.45-2.141 3.502-2.011zM15.738 19.657c-3.995 0-7.245-3.25-7.245-7.245s3.25-7.245 7.245-7.245c3.995 0 7.245 3.25 7.245 7.245s-3.25 7.245-7.245 7.245z"></path>
</symbol>
<symbol id="icon-quality" viewBox="0 0 31 32">
<path d="M0.159 11.314l13.308 17.308-6.037-17.308h-7.272z"></path>
<path d="M8.617 11.314l6.431 18.441 6.558-18.441h-12.989z"></path>
<path d="M16.481 29.069l13.652-17.755h-7.338l-6.313 17.755z"></path>
<path d="M24.925 1.979h-8.609l5.903 7.611 2.706-7.611z"></path>
<path d="M21.216 10.147l-6.070-7.826-6.069 7.826h12.14z"></path>
<path d="M13.976 1.979h-8.615l2.673 7.663 5.942-7.663z"></path>
<path d="M4.433 2.718l-4.433 7.43h7.023l-2.591-7.43z"></path>
<path d="M30.292 10.147l-4.437-7.437-2.645 7.437h7.083z"></path>
</symbol>

<symbol id="icon-voucher" viewBox="0 0 32 32">
<path fill="#a3b75c" style="fill: var(--color1, #a3b75c)" d="M3.5 8h25c1.105 0 2 0.895 2 2v12c0 1.105-0.895 2-2 2h-25c-1.105 0-2-0.895-2-2v-12c0-1.105 0.895-2 2-2z"></path>
<path fill="#c1272d" style="fill: var(--color2, #c1272d)" d="M1.5 14l10 10h-3l-7-7v-3z"></path>
<path fill="#c1272d" style="fill: var(--color2, #c1272d)" d="M20.5 8l10 10v-3l-7-7h-3z"></path>
<path fill="#ef4037" style="fill: var(--color3, #ef4037)" d="M11.5 12.5h9v8h-9v-8z"></path>
<path fill="#f7cc38" style="fill: var(--color4, #f7cc38)" d="M16 11l-2.5-0.5v2h5v-2l-2.5 0.5z"></path>
<path fill="#f7cc38" style="fill: var(--color4, #f7cc38)" d="M15.5 12.5h1v8h-1v-8z"></path>
<path fill="#f7cc38" style="fill: var(--color4, #f7cc38)" d="M11.5 16h9v1h-9v-1z"></path>
</symbol>
<symbol id="icon-google-play" viewBox="0 0 32 32">
<path fill="#ff9100" style="fill: var(--color5, #ff9100)" d="M28.779 13.601l-5.419-3.13-7.425 5.548 7.425 5.548 5.438-3.141c0.848-0.515 1.354-1.415 1.354-2.407s-0.506-1.892-1.372-2.418z"></path>
<path fill="#25d9f8" style="fill: var(--color6, #25d9f8)" d="M17.808 16.018c-0.008 0.010-6.565 8.441-6.57 8.447l-8.541 6.727c-0.526-0.526-0.845-1.239-0.845-2.027v-26.34c0-0.788 0.319-1.502 0.845-2.027l8.541 6.773c0.005 0.007 6.562 8.437 6.57 8.447z"></path>
<path fill="#00c0f1" style="fill: var(--color7, #00c0f1)" d="M17.812 16.018l-1.877 2.422v-4.843l1.877 2.422z"></path>
<path fill="#7fe881" style="fill: var(--color8, #7fe881)" d="M23.367 10.462l-5.557 5.557-15.111-15.22c0.188-0.169 0.375-0.3 0.582-0.432 0.901-0.507 1.971-0.488 2.853 0.056l9.799 5.759 7.434 4.28z"></path>
<path fill="#5bc980" style="fill: var(--color9, #5bc980)" d="M23.368 10.463l-5.557 5.557-1.877-1.877v-7.959l7.434 4.28z"></path>
<path fill="#ff637b" style="fill: var(--color10, #ff637b)" d="M23.367 21.576l-7.434 4.28-9.818 5.732c-0.451 0.263-0.939 0.413-1.446 0.413-0.469 0-0.939-0.131-1.389-0.375-0.207-0.131-0.394-0.263-0.582-0.432l15.112-15.174 5.557 5.556z"></path>
<path fill="#e63950" style="fill: var(--color11, #e63950)" d="M23.368 21.576l-7.434 4.28v-7.959l1.877-1.877 5.557 5.556z"></path>
</symbol>
<symbol id="icon-steam" viewBox="0 0 32 32">
<path fill="#fff" style="fill: var(--color12, #fff)" d="M17.013 32c8.277 0 14.987-6.71 14.987-14.987s-6.71-14.988-14.987-14.988c-8.277 0-14.988 6.71-14.988 14.988 0 1.011 0.1 2 0.291 2.955l8.731 0.254c0.569-1.083 1.544-1.951 2.793-2.363l0.093-4.218c-0.009-0.025-0.019-0.050-0.028-0.075-0.019-0.049-0.038-0.099-0.053-0.15-0.886-2.895 0.753-5.963 3.66-6.853s5.982 0.737 6.868 3.632c0.702 2.294-0.184 4.691-2.025 6.033l-2.616 4.096c0.112 0.229 0.213 0.465 0.289 0.716 0.785 2.566-0.667 5.285-3.242 6.073-2.222 0.68-4.55-0.301-5.654-2.229l-7-0.204c2.615 4.383 7.405 7.319 12.88 7.319zM19.997 14.755c1.613-0.493 2.522-2.197 2.031-3.804s-2.198-2.51-3.811-2.017c-1.614 0.494-2.523 2.197-2.031 3.804s2.197 2.511 3.812 2.017zM20.348 15.895c-2.258 0.691-4.646-0.573-5.334-2.822-0.688-2.25 0.584-4.633 2.842-5.324s4.647 0.572 5.335 2.822c0.688 2.249-0.586 4.632-2.843 5.323zM13.814 19.987c1.719-0.526 3.537 0.437 4.061 2.149s-0.445 3.527-2.164 4.052c-1.399 0.428-2.865-0.13-3.643-1.276l2.068 0.060c1.282 0.251 2.53-0.581 2.784-1.862 0.255-1.279-0.578-2.52-1.861-2.772l-1.919-0.056c0.21-0.12 0.433-0.221 0.675-0.295z"></path>
</symbol>
<symbol id="icon-apple" viewBox="0 0 36 32">
<path fill="#fefaf6" style="fill: var(--color13, #fefaf6)" d="M4.75 11.763c-3.006 4.695-1.095 11.819 2.229 16.139 1.659 2.16 3.339 4.098 5.64 4.098 0.043 0 0.087-0.001 0.131-0.002 1.081-0.039 1.862-0.338 2.617-0.628 0.848-0.325 1.725-0.662 3.101-0.662 1.309 0 2.144 0.325 2.951 0.64 0.796 0.31 1.616 0.631 2.827 0.61 2.592-0.043 4.183-2.135 5.587-3.981 1.465-1.927 2.2-3.798 2.448-4.512l0.010-0.028c0.047-0.127-0.020-0.266-0.155-0.322-0.004-0.002-0.017-0.007-0.021-0.008-0.456-0.168-4.46-1.766-4.502-6.123-0.039-3.54 3.003-5.414 3.613-5.754l0.028-0.016c0.066-0.038 0.112-0.099 0.128-0.168s-0.001-0.142-0.045-0.2c-2.1-2.766-5.319-3.183-6.614-3.233-0.188-0.017-0.382-0.025-0.577-0.025-1.522 0-2.98 0.517-4.151 0.933-0.809 0.287-1.507 0.535-1.989 0.535-0.541 0-1.244-0.251-2.057-0.541-1.088-0.389-2.32-0.829-3.626-0.829-0.031 0-0.062 0-0.092 0.001-3.034 0.040-5.902 1.603-7.483 4.077z"></path>
<path fill="#fefaf6" style="fill: var(--color13, #fefaf6)" d="M24.727 0c-1.838 0.067-4.042 1.085-5.359 2.474-1.12 1.167-2.214 3.114-1.925 5.076 0.018 0.123 0.129 0.218 0.266 0.227 0.124 0.009 0.251 0.013 0.377 0.013 1.797 0 3.735-0.895 5.059-2.335 1.393-1.521 2.098-3.473 1.885-5.222-0.017-0.137-0.151-0.239-0.302-0.233z"></path>
</symbol>
<symbol id="icon-amazon-s" viewBox="0 0 24 32">
<path fill="#ff8000" style="fill: var(--color14, #ff8000)" d="M23.636 27.129c-0.274-0.34-2.636-0.633-4.077 0.379-0.22 0.155-0.184 0.37 0.064 0.341 0.81-0.096 2.618-0.312 2.938 0.099 0.321 0.412-0.358 2.112-0.663 2.87-0.093 0.23 0.106 0.322 0.313 0.15 1.354-1.128 1.702-3.496 1.425-3.839z"></path>
<path fill="#ff8000" style="fill: var(--color14, #ff8000)" d="M21.15 28.554c-2.822 1.198-5.891 1.776-8.685 1.776-4.135 0-8.143-1.133-11.381-3.018-0.282-0.166-0.493 0.124-0.258 0.337 3.002 2.712 6.969 4.343 11.375 4.343 3.144 0 6.793-0.989 9.313-2.846 0.416-0.308 0.062-0.77-0.365-0.591z"></path>
<path fill="#fffbf7" style="fill: var(--color15, #fffbf7)" d="M22.149 22.134c-0.847-1.176-1.743-2.126-1.743-4.291v-7.214c0-3.051 0.216-5.857-2.034-7.961-1.779-1.704-4.72-2.303-6.976-2.303-4.401 0-9.311 1.64-10.35 7.083-0.106 0.581 0.319 0.886 0.687 0.971l4.5 0.482c0.411-0.018 0.719-0.429 0.801-0.847 0.379-1.874 1.959-2.778 3.724-2.778 0.95 0 2.027 0.351 2.594 1.205 0.645 0.95 0.556 2.253 0.556 3.352v0.595c-2.679 0.312-6.186 0.507-8.702 1.612-2.891 1.244-4.936 3.802-4.936 7.557 0 4.808 3.033 7.214 6.927 7.214 3.295 0 5.095-0.776 7.632-3.366 0.84 1.219 1.116 1.814 2.654 3.090 0.347 0.184 0.787 0.163 1.095-0.106l0.014 0.007c0.921-0.815 2.597-2.285 3.547-3.072 0.376-0.319 0.312-0.815 0.011-1.229zM13.908 15.136c0 1.803 0.050 3.306-0.864 4.907-0.733 1.304-1.899 2.101-3.203 2.101-1.775 0-2.806-1.35-2.806-3.352 0-3.944 3.533-4.659 6.874-4.659v1.003z"></path>
</symbol>
<symbol id="icon-amazon-b" viewBox="0 0 101 32">
<path fill="#fffbf7" style="fill: var(--color15, #fffbf7)" d="M36.379 1.846c-0.85-1.178-2.242-1.703-3.511-1.703-1.791 0-3.46 0.918-4.196 2.886-0.85-1.966-2.040-2.886-3.938-2.886-1.87 0-3.257 0.918-3.999 2.886h-0.051v-2.035c-0.019-0.281-0.256-0.509-0.551-0.52h-2.83c-0.323 0-0.585 0.249-0.585 0.56v15.576c0.021 0.279 0.253 0.495 0.544 0.513h3.037c0.323 0 0.583-0.253 0.583-0.562v-8.26c0-1.801-0.088-4.294 2.091-4.294 2.156 0 1.875 2.556 1.875 4.294v8.257c0 0.3 0.242 0.539 0.548 0.562h3.030c0.328 0 0.585-0.253 0.585-0.562v-8.257c0-0.885-0.028-2.2 0.281-2.986 0.311-0.785 1.080-1.276 1.815-1.276 0.881 0 1.559 0.295 1.784 1.341 0.144 0.625 0.086 2.263 0.086 2.921v8.257c0 0.3 0.244 0.539 0.546 0.562h3.032c0.323 0 0.583-0.253 0.583-0.562l0.005-9.828c0-1.671 0.195-3.573-0.764-4.884z"></path>
<path fill="#fffbf7" style="fill: var(--color15, #fffbf7)" d="M76.38 0.146c-4.391 0-6.826 3.771-6.826 8.617 0 4.819 2.405 8.685 6.826 8.685 4.247 0 6.94-3.768 6.94-8.52 0.011-4.916-2.433-8.782-6.94-8.782zM76.38 14.238c-2.379 0-2.354-4.064-2.354-5.966 0-1.898 0.144-4.946 2.377-4.946 0.962 0 1.648 0.423 1.984 1.508 0.4 1.245 0.455 2.816 0.455 4.131 0.009 1.998-0.105 5.274-2.463 5.274z"></path>
<path fill="#fffbf7" style="fill: var(--color15, #fffbf7)" d="M54.135 14.275c-0.553-0.771-1.139-1.394-1.139-2.814v-4.73c0-2 0.137-3.841-1.338-5.221-1.164-1.118-3.095-1.51-4.57-1.51-2.886 0-6.113 1.076-6.787 4.644-0.072 0.381 0.202 0.581 0.451 0.637l2.941 0.316c0.274-0.012 0.476-0.281 0.53-0.555 0.249-1.229 1.282-1.822 2.44-1.822 0.625 0 1.334 0.23 1.698 0.79 0.43 0.623 0.372 1.478 0.372 2.198l-0.002 0.386c-1.759 0.202-4.059 0.33-5.706 1.055-1.903 0.82-3.234 2.498-3.234 4.96 0 3.153 1.984 4.73 4.538 4.73 2.156 0 3.341-0.509 5.004-2.207 0.549 0.799 0.732 1.19 1.74 2.026 0.23 0.121 0.521 0.107 0.72-0.070l0.005 0.005c0.606-0.534 1.705-1.499 2.323-2.014 0.244-0.202 0.209-0.532 0.014-0.804zM48.73 9.686c0 1.183 0.032 2.168-0.569 3.218-0.479 0.855-1.248 1.378-2.093 1.378-1.169 0-1.852-0.885-1.852-2.198 0-2.586 2.319-3.055 4.514-3.055v0.658z"></path>
<path fill="#fffbf7" style="fill: var(--color15, #fffbf7)" d="M97.273 1.977c-0.853-1.343-2.189-1.835-3.548-1.838-2.093 0-3.29 1.015-4.135 3.146h-0.049v-2.381c-0.058-0.244-0.281-0.425-0.544-0.437h-2.814c-0.309 0-0.558 0.223-0.586 0.509l0.005 15.581c0 0.3 0.24 0.544 0.549 0.567h3.018c0.327 0 0.59-0.253 0.595-0.567v-8.383c0-1.052 0.053-1.998 0.486-2.951 0.337-0.75 1.013-1.245 1.756-1.245 2.091 0 1.891 2.493 1.891 4.196v8.459c0.023 0.263 0.263 0.467 0.534 0.493h3.046c0.304 0 0.549-0.221 0.59-0.493v-9.805c0-1.508 0-3.601-0.794-4.851z"></path>
<path fill="#fffbf7" style="fill: var(--color15, #fffbf7)" d="M67.579 12.905c-1.743-0.98-3.766-1.269-5.69-1.22l5.177-7.379c0.476-0.664 0.748-1.080 0.748-1.401v-1.907c0-0.335-0.253-0.565-0.576-0.565h-9.974c-0.311 0-0.562 0.225-0.562 0.565v2.228c0 0.332 0.251 0.56 0.576 0.56h5.213l-5.989 8.587c-0.362 0.551-0.367 1.169-0.367 1.531v2.261c0 0.325 0.369 0.699 0.713 0.509 3.395-1.801 7.465-1.622 10.532-0.014 0.381 0.195 0.734-0.186 0.734-0.511v-2.379c-0.035-0.318-0.139-0.646-0.534-0.864z"></path>
<path fill="#ff8000" style="fill: var(--color14, #ff8000)" d="M65.642 18.546c-0.62-0.769-5.964-1.431-9.224 0.857-0.497 0.351-0.416 0.836 0.144 0.771 1.833-0.216 5.922-0.706 6.647 0.223 0.727 0.932-0.811 4.779-1.501 6.494-0.211 0.52 0.24 0.73 0.709 0.339 3.064-2.551 3.85-7.909 3.225-8.685z"></path>
<path fill="#ff8000" style="fill: var(--color14, #ff8000)" d="M60.033 21.769c-6.385 2.711-13.329 4.017-19.649 4.017-9.356 0-18.424-2.563-25.75-6.828-0.639-0.376-1.115 0.281-0.583 0.762 6.791 6.136 15.766 9.826 25.736 9.826 7.114 0 15.369-2.237 21.071-6.438 0.941-0.697 0.139-1.743-0.825-1.338z"></path>
<path fill="#fffbf7" style="fill: var(--color15, #fffbf7)" d="M14.347 14.275c-0.555-0.771-1.143-1.394-1.143-2.814v-4.73c0-2 0.142-3.841-1.334-5.221-1.166-1.118-3.095-1.51-4.575-1.51-2.886 0-6.106 1.076-6.787 4.644-0.070 0.381 0.209 0.581 0.451 0.637l2.951 0.316c0.269-0.012 0.472-0.281 0.525-0.555 0.249-1.229 1.285-1.822 2.442-1.822 0.623 0 1.329 0.23 1.701 0.79 0.423 0.623 0.365 1.478 0.365 2.198v0.39c-1.756 0.204-4.057 0.332-5.706 1.057-1.896 0.815-3.236 2.493-3.236 4.956 0 3.153 1.989 4.73 4.542 4.73 2.161 0 3.341-0.509 5.005-2.207 0.551 0.799 0.732 1.19 1.74 2.026 0.228 0.121 0.516 0.107 0.718-0.070l0.009 0.005c0.604-0.534 1.703-1.499 2.326-2.014 0.246-0.209 0.204-0.534 0.007-0.806zM8.943 9.686c0 1.183 0.033 2.168-0.567 3.218-0.481 0.855-1.245 1.378-2.1 1.378-1.164 0-1.84-0.885-1.84-2.198 0-2.586 2.316-3.055 4.507-3.055v0.658z"></path>
</symbol>
</defs>
</svg>
